<?xml version="1.0" standalone="no"?>
<!DOCTYPE svg PUBLIC "-//W3C//DTD SVG 20010904//EN"
 "http://www.w3.org/TR/2001/REC-SVG-20010904/DTD/svg10.dtd">
<svg version="1.0" xmlns="http://www.w3.org/2000/svg"
 width="700.000000pt" height="700.000000pt" viewBox="0 0 700.000000 700.000000"
 preserveAspectRatio="xMidYMid meet">

<g transform="translate(0.000000,700.000000) scale(0.100000,-0.100000)"
fill="#000000" stroke="none">
<path d="M3265 5704 c-580 -101 -1036 -564 -1130 -1149 -19 -116 -19 -305 0
-423 17 -103 63 -254 106 -350 l29 -64 -338 -165 c-318 -156 -372 -186 -392
-224 -5 -8 -67 -319 -139 -690 -71 -371 -153 -791 -180 -935 -28 -144 -51
-273 -51 -288 0 -44 27 -94 62 -116 70 -42 70 -42 785 264 l662 284 803 -284
c549 -194 816 -284 845 -284 56 0 1411 579 1461 625 60 55 72 -27 -158 1155
-43 223 -97 502 -120 622 -24 121 -50 229 -60 245 -21 35 -75 63 -120 63 -21
0 -129 -47 -309 -135 -152 -74 -280 -135 -283 -135 -4 0 6 29 22 65 45 99 86
240 105 354 21 124 16 362 -10 481 -38 174 -111 345 -214 500 -68 104 -248
286 -352 357 -161 111 -376 198 -559 228 -118 19 -355 18 -465 -1z m467 -294
c436 -94 777 -456 848 -903 20 -122 8 -331 -25 -442 -32 -109 -115 -286 -178
-376 -25 -37 -202 -280 -394 -540 -192 -261 -377 -513 -412 -561 -35 -49 -66
-88 -70 -88 -4 0 -148 192 -321 428 -173 235 -364 495 -425 577 -132 178 -172
239 -224 343 -86 172 -121 316 -121 499 0 282 102 536 298 745 262 279 648
398 1024 318z m1498 -1787 c0 -5 65 -349 146 -766 81 -420 142 -763 138 -767
-6 -6 -902 -394 -1100 -476 -7 -3 -15 34 -22 108 -7 62 -30 286 -51 498 -22
212 -50 482 -62 601 l-22 215 73 98 73 99 256 125 c613 299 571 279 571 265z
m-2680 -325 c69 -94 128 -176 133 -183 4 -8 -2 -101 -13 -207 -11 -106 -33
-325 -50 -487 -16 -162 -31 -295 -32 -297 -2 -1 -244 -106 -538 -232 -303
-130 -536 -225 -537 -218 -2 6 22 137 52 291 30 154 94 487 142 739 l88 460
310 152 c171 84 312 153 315 153 3 0 61 -77 130 -171z m542 -738 c63 -85 158
-215 212 -288 54 -73 111 -139 127 -147 39 -21 108 -19 145 4 27 16 151 179
428 562 44 60 81 108 82 106 4 -3 9 -55 59 -542 14 -137 34 -335 45 -439 11
-104 18 -192 15 -194 -4 -5 -147 45 -1105 384 l-315 111 2 34 c2 51 62 649 69
687 l5 34 58 -79 c32 -43 110 -148 173 -233z"/>
<path d="M3350 4934 c-106 -28 -199 -82 -280 -163 -122 -123 -180 -263 -180
-431 0 -169 59 -310 179 -431 123 -122 258 -179 430 -179 175 0 306 54 432
180 120 119 179 260 179 430 0 104 -18 180 -67 280 -70 145 -232 273 -398 315
-74 19 -222 18 -295 -1z m324 -212 c323 -151 327 -602 7 -760 -72 -36 -79 -37
-181 -37 -102 0 -109 1 -181 37 -93 46 -158 112 -202 206 -30 62 -32 75 -32
173 0 101 1 108 38 181 44 91 113 158 202 199 78 35 94 38 197 35 72 -3 98 -9
152 -34z"/>
</g>
</svg>
